<svg xmlns="http://www.w3.org/2000/svg" width="32" height="32" viewBox="0 0 32 32" fill="none">
  <defs>
    <linearGradient id="faviconGradient" x1="0%" y1="0%" x2="100%" y2="100%">
      <stop offset="0%" style="stop-color:#06B6D4;stop-opacity:1" />
      <stop offset="100%" style="stop-color:#14B8A6;stop-opacity:1" />
    </linearGradient>
  </defs>
  
  <rect width="32" height="32" rx="8" fill="url(#faviconGradient)"/>
  
  <!-- Tooth -->
  <path d="M 16 6
           C 12.5 6 10 8 8 9
           C 6.5 10 5.5 11.8 5.5 14.5
           C 5.5 16.5 6.8 18.2 7.5 20.5
           C 8.2 23 8.2 25.5 10 26.5
           C 11 27 11.8 24.5 12.2 21.5
           C 12.6 18.5 13.2 17.5 14.5 17.5
           C 15.8 17.5 16.4 18.5 16.8 21.5
           C 17.2 24.5 18 27 19 26.5
           C 20.8 25.5 20.8 23 21.5 20.5
           C 22.2 18.2 23.5 16.5 23.5 14.5
           C 23.5 11.8 22.5 10 21 9
           C 19 8 16.5 6 16 6 Z"
        fill="white"/>
  
  <!-- Shine detail -->
  <ellipse cx="13.5" cy="11" rx="1.5" ry="1.8" fill="#06B6D4" opacity="0.6"/>
  <circle cx="16" cy="13.5" r="2" fill="#0EA5E9"/>
</svg>
